<svg xmlns="http://www.w3.org/2000/svg" viewBox="0 0 32 32">
  <defs>
    <linearGradient id="bg" x1="0" y1="0" x2="1" y2="1">
      <stop offset="0%" stop-color="#FFC24D"/>
      <stop offset="50%" stop-color="#FF6A1F"/>
      <stop offset="100%" stop-color="#E4130C"/>
    </linearGradient>
  </defs>
  <rect width="32" height="32" rx="8" fill="url(#bg)"/>
  <!-- stem 1 -->
  <path d="M14 26 Q11 18 8 10" fill="none" stroke="oklch(0.62 0.18 250)" stroke-width="1.8" stroke-linecap="round"/>
  <!-- stem 2 -->
  <path d="M15 26 Q14 15 12 6" fill="none" stroke="oklch(0.94 0.22 130)" stroke-width="1.8" stroke-linecap="round"/>
  <!-- stem 3 -->
  <path d="M17 26 Q18 15 20 6" fill="none" stroke="oklch(0.96 0.14 65)" stroke-width="1.8" stroke-linecap="round"/>
  <!-- stem 4 -->
  <path d="M18 26 Q21 18 24 10" fill="none" stroke="oklch(0.92 0.16 340)" stroke-width="1.8" stroke-linecap="round"/>
  <!-- leaves on stem 2 -->
  <ellipse cx="13" cy="14" rx="4" ry="1.5" fill="oklch(0.94 0.22 130)" transform="rotate(-35 13 14)"/>
  <ellipse cx="11" cy="10" rx="3.5" ry="1.4" fill="oklch(0.88 0.20 138)" transform="rotate(-45 11 10)"/>
  <!-- leaves on stem 3 -->
  <ellipse cx="19" cy="14" rx="4" ry="1.5" fill="oklch(0.95 0.16 65)" transform="rotate(35 19 14)"/>
  <ellipse cx="21" cy="10" rx="3.5" ry="1.4" fill="oklch(0.90 0.14 60)" transform="rotate(45 21 10)"/>
  <!-- glow dot at base -->
  <circle cx="16" cy="26" r="2" fill="#FFF3B0" opacity="0.85"/>
</svg>
